<?xml version="1.0" encoding="UTF-8"?>
<!-- Do not edit this file with editors other than draw.io -->
<!DOCTYPE svg PUBLIC "-//W3C//DTD SVG 1.1//EN" "http://www.w3.org/Graphics/SVG/1.1/DTD/svg11.dtd">
<svg xmlns="http://www.w3.org/2000/svg" style="background-color: rgb(255, 255, 255);" xmlns:xlink="http://www.w3.org/1999/xlink" version="1.1" width="851px" height="691px" viewBox="-0.5 -0.5 851 691" content="&lt;mxfile host=&quot;app.diagrams.net&quot; modified=&quot;2024-07-12T05:44:34.241Z&quot; agent=&quot;Mozilla/5.0 (X11; Ubuntu; Linux x86_64; rv:128.0) Gecko/20100101 Firefox/128.0&quot; etag=&quot;SZOnMi3VMfY0I0s_eKPF&quot; version=&quot;24.6.3&quot; type=&quot;device&quot; scale=&quot;1&quot; border=&quot;10&quot;&gt;&#xA;  &lt;diagram name=&quot;Page-1&quot; id=&quot;wawhI42PVPKyZ7hzpayD&quot;&gt;&#xA;    &lt;mxGraphModel dx=&quot;2924&quot; dy=&quot;1120&quot; grid=&quot;1&quot; gridSize=&quot;10&quot; guides=&quot;1&quot; tooltips=&quot;1&quot; connect=&quot;1&quot; arrows=&quot;1&quot; fold=&quot;1&quot; page=&quot;1&quot; pageScale=&quot;1&quot; pageWidth=&quot;850&quot; pageHeight=&quot;1100&quot; math=&quot;0&quot; shadow=&quot;0&quot;&gt;&#xA;      &lt;root&gt;&#xA;        &lt;mxCell id=&quot;0&quot; /&gt;&#xA;        &lt;mxCell id=&quot;1&quot; parent=&quot;0&quot; /&gt;&#xA;        &lt;mxCell id=&quot;qYD2Q9FhQhNOlMmpPzYI-13&quot; style=&quot;edgeStyle=orthogonalEdgeStyle;rounded=0;orthogonalLoop=1;jettySize=auto;html=1;entryX=0.5;entryY=0;entryDx=0;entryDy=0;&quot; edge=&quot;1&quot; parent=&quot;1&quot;&gt;&#xA;          &lt;mxGeometry relative=&quot;1&quot; as=&quot;geometry&quot;&gt;&#xA;            &lt;mxPoint x=&quot;166&quot; y=&quot;188&quot; as=&quot;sourcePoint&quot; /&gt;&#xA;            &lt;mxPoint x=&quot;166&quot; y=&quot;280&quot; as=&quot;targetPoint&quot; /&gt;&#xA;          &lt;/mxGeometry&gt;&#xA;        &lt;/mxCell&gt;&#xA;        &lt;mxCell id=&quot;qYD2Q9FhQhNOlMmpPzYI-12&quot; value=&quot;&amp;lt;div&amp;gt;SQS S3 Events with additional property:&amp;lt;/div&amp;gt;&amp;lt;pre&amp;gt;{ &amp;quot;attribute_id&amp;quot;: &amp;quot;some_id&amp;quot; }&amp;lt;/pre&amp;gt;&quot; style=&quot;text;html=1;align=center;verticalAlign=middle;resizable=0;points=[];autosize=1;strokeColor=none;fillColor=none;&quot; vertex=&quot;1&quot; parent=&quot;1&quot;&gt;&#xA;          &lt;mxGeometry x=&quot;305&quot; y=&quot;145&quot; width=&quot;240&quot; height=&quot;70&quot; as=&quot;geometry&quot; /&gt;&#xA;        &lt;/mxCell&gt;&#xA;        &lt;mxCell id=&quot;qYD2Q9FhQhNOlMmpPzYI-14&quot; value=&quot;&amp;lt;div&amp;gt;Receive S3 events&amp;lt;/div&amp;gt;&quot; style=&quot;text;html=1;align=center;verticalAlign=middle;resizable=0;points=[];autosize=1;strokeColor=none;fillColor=none;&quot; vertex=&quot;1&quot; parent=&quot;1&quot;&gt;&#xA;          &lt;mxGeometry x=&quot;40&quot; y=&quot;220&quot; width=&quot;120&quot; height=&quot;30&quot; as=&quot;geometry&quot; /&gt;&#xA;        &lt;/mxCell&gt;&#xA;        &lt;mxCell id=&quot;qYD2Q9FhQhNOlMmpPzYI-20&quot; value=&quot;&quot; style=&quot;sketch=0;points=[[0,0,0],[0.25,0,0],[0.5,0,0],[0.75,0,0],[1,0,0],[0,1,0],[0.25,1,0],[0.5,1,0],[0.75,1,0],[1,1,0],[0,0.25,0],[0,0.5,0],[0,0.75,0],[1,0.25,0],[1,0.5,0],[1,0.75,0]];outlineConnect=0;fontColor=#232F3E;fillColor=#E7157B;strokeColor=#ffffff;dashed=0;verticalLabelPosition=bottom;verticalAlign=top;align=center;html=1;fontSize=12;fontStyle=0;aspect=fixed;shape=mxgraph.aws4.resourceIcon;resIcon=mxgraph.aws4.sqs;&quot; vertex=&quot;1&quot; parent=&quot;1&quot;&gt;&#xA;          &lt;mxGeometry x=&quot;127&quot; y=&quot;110&quot; width=&quot;78&quot; height=&quot;78&quot; as=&quot;geometry&quot; /&gt;&#xA;        &lt;/mxCell&gt;&#xA;        &lt;mxCell id=&quot;qYD2Q9FhQhNOlMmpPzYI-21&quot; style=&quot;edgeStyle=orthogonalEdgeStyle;rounded=0;orthogonalLoop=1;jettySize=auto;html=1;exitX=0;exitY=0.5;exitDx=0;exitDy=0;&quot; edge=&quot;1&quot; parent=&quot;1&quot; source=&quot;qYD2Q9FhQhNOlMmpPzYI-35&quot; target=&quot;qYD2Q9FhQhNOlMmpPzYI-25&quot;&gt;&#xA;          &lt;mxGeometry relative=&quot;1&quot; as=&quot;geometry&quot;&gt;&#xA;            &lt;mxPoint x=&quot;-190&quot; y=&quot;335&quot; as=&quot;sourcePoint&quot; /&gt;&#xA;            &lt;mxPoint x=&quot;-30&quot; y=&quot;410&quot; as=&quot;targetPoint&quot; /&gt;&#xA;          &lt;/mxGeometry&gt;&#xA;        &lt;/mxCell&gt;&#xA;        &lt;mxCell id=&quot;qYD2Q9FhQhNOlMmpPzYI-22&quot; value=&quot;FileManager&quot; style=&quot;whiteSpace=wrap;html=1;aspect=fixed;&quot; vertex=&quot;1&quot; parent=&quot;1&quot;&gt;&#xA;          &lt;mxGeometry x=&quot;620&quot; y=&quot;280&quot; width=&quot;130&quot; height=&quot;130&quot; as=&quot;geometry&quot; /&gt;&#xA;        &lt;/mxCell&gt;&#xA;        &lt;mxCell id=&quot;qYD2Q9FhQhNOlMmpPzYI-23&quot; value=&quot;WorkflowManager&quot; style=&quot;whiteSpace=wrap;html=1;aspect=fixed;&quot; vertex=&quot;1&quot; parent=&quot;1&quot;&gt;&#xA;          &lt;mxGeometry x=&quot;101&quot; y=&quot;620&quot; width=&quot;130&quot; height=&quot;130&quot; as=&quot;geometry&quot; /&gt;&#xA;        &lt;/mxCell&gt;&#xA;        &lt;mxCell id=&quot;qYD2Q9FhQhNOlMmpPzYI-24&quot; value=&quot;&quot; style=&quot;sketch=0;points=[[0,0,0],[0.25,0,0],[0.5,0,0],[0.75,0,0],[1,0,0],[0,1,0],[0.25,1,0],[0.5,1,0],[0.75,1,0],[1,1,0],[0,0.25,0],[0,0.5,0],[0,0.75,0],[1,0.25,0],[1,0.5,0],[1,0.75,0]];outlineConnect=0;fontColor=#232F3E;fillColor=#E7157B;strokeColor=#ffffff;dashed=0;verticalLabelPosition=bottom;verticalAlign=top;align=center;html=1;fontSize=12;fontStyle=0;aspect=fixed;shape=mxgraph.aws4.resourceIcon;resIcon=mxgraph.aws4.eventbridge;&quot; vertex=&quot;1&quot; parent=&quot;1&quot;&gt;&#xA;          &lt;mxGeometry x=&quot;-74&quot; y=&quot;472&quot; width=&quot;78&quot; height=&quot;78&quot; as=&quot;geometry&quot; /&gt;&#xA;        &lt;/mxCell&gt;&#xA;        &lt;mxCell id=&quot;qYD2Q9FhQhNOlMmpPzYI-25&quot; value=&quot;EventBridge&quot; style=&quot;text;html=1;align=center;verticalAlign=middle;resizable=0;points=[];autosize=1;strokeColor=none;fillColor=none;&quot; vertex=&quot;1&quot; parent=&quot;1&quot;&gt;&#xA;          &lt;mxGeometry x=&quot;-80&quot; y=&quot;442&quot; width=&quot;90&quot; height=&quot;30&quot; as=&quot;geometry&quot; /&gt;&#xA;        &lt;/mxCell&gt;&#xA;        &lt;mxCell id=&quot;qYD2Q9FhQhNOlMmpPzYI-26&quot; style=&quot;edgeStyle=orthogonalEdgeStyle;rounded=0;orthogonalLoop=1;jettySize=auto;html=1;&quot; edge=&quot;1&quot; parent=&quot;1&quot; source=&quot;qYD2Q9FhQhNOlMmpPzYI-23&quot; target=&quot;qYD2Q9FhQhNOlMmpPzYI-24&quot;&gt;&#xA;          &lt;mxGeometry relative=&quot;1&quot; as=&quot;geometry&quot;&gt;&#xA;            &lt;mxPoint x=&quot;-50&quot; y=&quot;550&quot; as=&quot;targetPoint&quot; /&gt;&#xA;            &lt;mxPoint x=&quot;-190&quot; y=&quot;685&quot; as=&quot;sourcePoint&quot; /&gt;&#xA;          &lt;/mxGeometry&gt;&#xA;        &lt;/mxCell&gt;&#xA;        &lt;mxCell id=&quot;qYD2Q9FhQhNOlMmpPzYI-27&quot; value=&quot;Push rule event&quot; style=&quot;text;html=1;align=center;verticalAlign=middle;resizable=0;points=[];autosize=1;strokeColor=none;fillColor=none;&quot; vertex=&quot;1&quot; parent=&quot;1&quot;&gt;&#xA;          &lt;mxGeometry x=&quot;-30&quot; y=&quot;690&quot; width=&quot;110&quot; height=&quot;30&quot; as=&quot;geometry&quot; /&gt;&#xA;        &lt;/mxCell&gt;&#xA;        &lt;mxCell id=&quot;qYD2Q9FhQhNOlMmpPzYI-28&quot; value=&quot;Listen for rule events&quot; style=&quot;text;html=1;align=center;verticalAlign=middle;resizable=0;points=[];autosize=1;strokeColor=none;fillColor=none;&quot; vertex=&quot;1&quot; parent=&quot;1&quot;&gt;&#xA;          &lt;mxGeometry x=&quot;-30&quot; y=&quot;310&quot; width=&quot;130&quot; height=&quot;30&quot; as=&quot;geometry&quot; /&gt;&#xA;        &lt;/mxCell&gt;&#xA;        &lt;mxCell id=&quot;qYD2Q9FhQhNOlMmpPzYI-32&quot; style=&quot;edgeStyle=orthogonalEdgeStyle;rounded=0;orthogonalLoop=1;jettySize=auto;html=1;exitX=0.25;exitY=1;exitDx=0;exitDy=0;entryX=0.75;entryY=1;entryDx=0;entryDy=0;&quot; edge=&quot;1&quot; parent=&quot;1&quot; source=&quot;qYD2Q9FhQhNOlMmpPzYI-35&quot; target=&quot;qYD2Q9FhQhNOlMmpPzYI-35&quot;&gt;&#xA;          &lt;mxGeometry relative=&quot;1&quot; as=&quot;geometry&quot;&gt;&#xA;            &lt;Array as=&quot;points&quot;&gt;&#xA;              &lt;mxPoint x=&quot;133&quot; y=&quot;460&quot; /&gt;&#xA;              &lt;mxPoint x=&quot;198&quot; y=&quot;460&quot; /&gt;&#xA;            &lt;/Array&gt;&#xA;            &lt;mxPoint x=&quot;190&quot; y=&quot;450&quot; as=&quot;sourcePoint&quot; /&gt;&#xA;            &lt;mxPoint x=&quot;190&quot; y=&quot;515&quot; as=&quot;targetPoint&quot; /&gt;&#xA;          &lt;/mxGeometry&gt;&#xA;        &lt;/mxCell&gt;&#xA;        &lt;mxCell id=&quot;qYD2Q9FhQhNOlMmpPzYI-33&quot; value=&quot;&amp;lt;div&amp;gt;Apply rules to S3 events&amp;lt;/div&amp;gt;&quot; style=&quot;text;html=1;align=center;verticalAlign=middle;resizable=0;points=[];autosize=1;strokeColor=none;fillColor=none;&quot; vertex=&quot;1&quot; parent=&quot;1&quot;&gt;&#xA;          &lt;mxGeometry x=&quot;91&quot; y=&quot;470&quot; width=&quot;150&quot; height=&quot;30&quot; as=&quot;geometry&quot; /&gt;&#xA;        &lt;/mxCell&gt;&#xA;        &lt;mxCell id=&quot;qYD2Q9FhQhNOlMmpPzYI-41&quot; style=&quot;edgeStyle=orthogonalEdgeStyle;rounded=0;orthogonalLoop=1;jettySize=auto;html=1;exitX=1;exitY=0.25;exitDx=0;exitDy=0;&quot; edge=&quot;1&quot; parent=&quot;1&quot; source=&quot;qYD2Q9FhQhNOlMmpPzYI-35&quot; target=&quot;qYD2Q9FhQhNOlMmpPzYI-37&quot;&gt;&#xA;          &lt;mxGeometry relative=&quot;1&quot; as=&quot;geometry&quot; /&gt;&#xA;        &lt;/mxCell&gt;&#xA;        &lt;mxCell id=&quot;qYD2Q9FhQhNOlMmpPzYI-43&quot; style=&quot;edgeStyle=orthogonalEdgeStyle;rounded=0;orthogonalLoop=1;jettySize=auto;html=1;exitX=1;exitY=0.75;exitDx=0;exitDy=0;entryX=0;entryY=0.75;entryDx=0;entryDy=0;&quot; edge=&quot;1&quot; parent=&quot;1&quot; source=&quot;qYD2Q9FhQhNOlMmpPzYI-35&quot; target=&quot;qYD2Q9FhQhNOlMmpPzYI-22&quot;&gt;&#xA;          &lt;mxGeometry relative=&quot;1&quot; as=&quot;geometry&quot; /&gt;&#xA;        &lt;/mxCell&gt;&#xA;        &lt;mxCell id=&quot;qYD2Q9FhQhNOlMmpPzYI-35&quot; value=&quot;FileAttributeManager&quot; style=&quot;whiteSpace=wrap;html=1;aspect=fixed;&quot; vertex=&quot;1&quot; parent=&quot;1&quot;&gt;&#xA;          &lt;mxGeometry x=&quot;100&quot; y=&quot;280&quot; width=&quot;130&quot; height=&quot;130&quot; as=&quot;geometry&quot; /&gt;&#xA;        &lt;/mxCell&gt;&#xA;        &lt;mxCell id=&quot;qYD2Q9FhQhNOlMmpPzYI-42&quot; style=&quot;edgeStyle=orthogonalEdgeStyle;rounded=0;orthogonalLoop=1;jettySize=auto;html=1;entryX=0;entryY=0.25;entryDx=0;entryDy=0;&quot; edge=&quot;1&quot; parent=&quot;1&quot; source=&quot;qYD2Q9FhQhNOlMmpPzYI-37&quot; target=&quot;qYD2Q9FhQhNOlMmpPzYI-22&quot;&gt;&#xA;          &lt;mxGeometry relative=&quot;1&quot; as=&quot;geometry&quot; /&gt;&#xA;        &lt;/mxCell&gt;&#xA;        &lt;mxCell id=&quot;qYD2Q9FhQhNOlMmpPzYI-37&quot; value=&quot;&quot; style=&quot;sketch=0;points=[[0,0,0],[0.25,0,0],[0.5,0,0],[0.75,0,0],[1,0,0],[0,1,0],[0.25,1,0],[0.5,1,0],[0.75,1,0],[1,1,0],[0,0.25,0],[0,0.5,0],[0,0.75,0],[1,0.25,0],[1,0.5,0],[1,0.75,0]];outlineConnect=0;fontColor=#232F3E;fillColor=#E7157B;strokeColor=#ffffff;dashed=0;verticalLabelPosition=bottom;verticalAlign=top;align=center;html=1;fontSize=12;fontStyle=0;aspect=fixed;shape=mxgraph.aws4.resourceIcon;resIcon=mxgraph.aws4.sqs;&quot; vertex=&quot;1&quot; parent=&quot;1&quot;&gt;&#xA;          &lt;mxGeometry x=&quot;386&quot; y=&quot;202&quot; width=&quot;78&quot; height=&quot;78&quot; as=&quot;geometry&quot; /&gt;&#xA;        &lt;/mxCell&gt;&#xA;        &lt;mxCell id=&quot;qYD2Q9FhQhNOlMmpPzYI-38&quot; value=&quot;SQS S3 Events&quot; style=&quot;text;html=1;align=center;verticalAlign=middle;resizable=0;points=[];autosize=1;strokeColor=none;fillColor=none;&quot; vertex=&quot;1&quot; parent=&quot;1&quot;&gt;&#xA;          &lt;mxGeometry x=&quot;110&quot; y=&quot;80&quot; width=&quot;110&quot; height=&quot;30&quot; as=&quot;geometry&quot; /&gt;&#xA;        &lt;/mxCell&gt;&#xA;        &lt;mxCell id=&quot;qYD2Q9FhQhNOlMmpPzYI-44&quot; value=&quot;&amp;lt;div&amp;gt;Apply to existing events:&amp;amp;nbsp;&amp;lt;/div&amp;gt;&amp;lt;div align=&amp;quot;left&amp;quot;&amp;gt;&amp;lt;pre&amp;gt;POST /api/v1/s3_objects?key=...bucket=...&amp;lt;/pre&amp;gt;&amp;lt;/div&amp;gt;&amp;lt;div align=&amp;quot;left&amp;quot;&amp;gt;&amp;lt;pre&amp;gt;{ &amp;quot;attribute_id&amp;quot;: &amp;quot;some_id&amp;quot; }&amp;lt;/pre&amp;gt;&amp;lt;/div&amp;gt;&quot; style=&quot;text;html=1;align=center;verticalAlign=middle;resizable=0;points=[];autosize=1;strokeColor=none;fillColor=none;&quot; vertex=&quot;1&quot; parent=&quot;1&quot;&gt;&#xA;          &lt;mxGeometry x=&quot;265&quot; y=&quot;380&quot; width=&quot;320&quot; height=&quot;90&quot; as=&quot;geometry&quot; /&gt;&#xA;        &lt;/mxCell&gt;&#xA;      &lt;/root&gt;&#xA;    &lt;/mxGraphModel&gt;&#xA;  &lt;/diagram&gt;&#xA;&lt;/mxfile&gt;&#xA;"><defs/><rect fill="#ffffff" width="100%" height="100%" x="0" y="0"/><g><g data-cell-id="0"><g data-cell-id="1"><g data-cell-id="qYD2Q9FhQhNOlMmpPzYI-13"><g><path d="M 256 118 L 256 203.63" fill="none" stroke="rgb(0, 0, 0)" stroke-miterlimit="10" pointer-events="stroke"/><path d="M 256 208.88 L 252.5 201.88 L 256 203.63 L 259.5 201.88 Z" fill="rgb(0, 0, 0)" stroke="rgb(0, 0, 0)" stroke-miterlimit="10" pointer-events="all"/></g></g><g data-cell-id="qYD2Q9FhQhNOlMmpPzYI-12"><g><rect x="395" y="75" width="240" height="70" fill="none" stroke="none" pointer-events="all"/></g><g><g transform="translate(-0.5 -0.5)"><switch><foreignObject style="overflow: visible; text-align: left;" pointer-events="none" width="100%" height="100%" requiredFeatures="http://www.w3.org/TR/SVG11/feature#Extensibility"><div xmlns="http://www.w3.org/1999/xhtml" style="display: flex; align-items: unsafe center; justify-content: unsafe center; width: 1px; height: 1px; padding-top: 110px; margin-left: 515px;"><div style="box-sizing: border-box; font-size: 0px; text-align: center;" data-drawio-colors="color: rgb(0, 0, 0); "><div style="display: inline-block; font-size: 12px; font-family: &quot;Helvetica&quot;; color: rgb(0, 0, 0); line-height: 1.2; pointer-events: all; white-space: nowrap;"><div>SQS S3 Events with additional property:</div><pre>{ "attribute_id": "some_id" }</pre></div></div></div></foreignObject><text x="515" y="114" fill="rgb(0, 0, 0)" font-family="&quot;Helvetica&quot;" font-size="12px" text-anchor="middle">SQS S3 Events with additional property:...</text></switch></g></g></g><g data-cell-id="qYD2Q9FhQhNOlMmpPzYI-14"><g><rect x="130" y="150" width="120" height="30" fill="none" stroke="none" pointer-events="all"/></g><g><g transform="translate(-0.5 -0.5)"><switch><foreignObject style="overflow: visible; text-align: left;" pointer-events="none" width="100%" height="100%" requiredFeatures="http://www.w3.org/TR/SVG11/feature#Extensibility"><div xmlns="http://www.w3.org/1999/xhtml" style="display: flex; align-items: unsafe center; justify-content: unsafe center; width: 1px; height: 1px; padding-top: 165px; margin-left: 190px;"><div style="box-sizing: border-box; font-size: 0px; text-align: center;" data-drawio-colors="color: rgb(0, 0, 0); "><div style="display: inline-block; font-size: 12px; font-family: &quot;Helvetica&quot;; color: rgb(0, 0, 0); line-height: 1.2; pointer-events: all; white-space: nowrap;"><div>Receive S3 events</div></div></div></div></foreignObject><text x="190" y="169" fill="rgb(0, 0, 0)" font-family="&quot;Helvetica&quot;" font-size="12px" text-anchor="middle">Receive S3 events</text></switch></g></g></g><g data-cell-id="qYD2Q9FhQhNOlMmpPzYI-20"><g><path d="M 217 40 L 295 40 L 295 118 L 217 118 Z" fill="#e7157b" stroke="none" pointer-events="all"/><path d="M 243.66 83.03 L 246.95 79.79 C 247.15 79.59 247.27 79.31 247.27 79.02 C 247.27 78.73 247.15 78.46 246.95 78.25 L 243.67 74.97 L 242.12 76.5 L 243.52 77.91 L 238.52 77.91 L 238.52 80.09 L 243.54 80.09 L 242.12 81.49 Z M 268.71 83.13 L 273.09 79.87 C 273.36 79.66 273.53 79.34 273.53 79 C 273.53 78.66 273.36 78.33 273.09 78.13 L 268.71 74.87 L 267.4 76.61 L 269.15 77.91 L 264.77 77.91 L 264.77 80.09 L 269.15 80.09 L 267.4 81.39 Z M 250.76 79 C 250.76 81.31 250.36 83.48 249.62 85.38 C 251.58 84.62 253.8 84.24 256.02 84.24 C 258.24 84.24 260.46 84.62 262.43 85.38 C 261.68 83.48 261.28 81.31 261.28 79 C 261.28 76.69 261.68 74.52 262.43 72.62 C 258.49 74.13 253.55 74.13 249.62 72.62 C 250.36 74.52 250.76 76.69 250.76 79 Z M 245.4 89.55 C 245.19 89.34 245.08 89.06 245.08 88.78 C 245.08 88.51 245.19 88.23 245.4 88.01 C 247.39 86.04 248.57 82.67 248.57 79 C 248.57 75.33 247.39 71.96 245.4 69.99 C 245.19 69.77 245.08 69.49 245.08 69.22 C 245.08 68.94 245.19 68.66 245.4 68.45 C 245.83 68.02 246.52 68.02 246.95 68.45 C 251.19 72.66 260.85 72.66 265.09 68.45 C 265.52 68.02 266.21 68.02 266.64 68.45 C 266.85 68.66 266.96 68.94 266.96 69.22 C 266.96 69.49 266.85 69.77 266.64 69.99 C 264.65 71.96 263.47 75.33 263.47 79 C 263.47 82.67 264.65 86.04 266.64 88.01 C 266.85 88.23 266.96 88.51 266.96 88.78 C 266.96 89.06 266.85 89.34 266.64 89.55 C 266.43 89.76 266.15 89.87 265.87 89.87 C 265.59 89.87 265.31 89.76 265.09 89.55 C 260.85 85.34 251.19 85.34 246.95 89.55 C 246.52 89.98 245.83 89.98 245.4 89.55 Z M 284.43 79.01 C 284.43 77.99 284.03 77.04 283.31 76.32 C 282.57 75.58 281.59 75.21 280.61 75.21 C 279.63 75.21 278.66 75.58 277.91 76.32 C 276.42 77.8 276.42 80.21 277.91 81.69 C 279.4 83.17 281.82 83.17 283.31 81.69 C 284.03 80.97 284.43 80.02 284.43 79.01 Z M 284.86 83.22 C 283.69 84.39 282.15 84.97 280.61 84.97 C 279.07 84.97 277.54 84.39 276.36 83.22 C 274.02 80.9 274.02 77.11 276.36 74.79 C 278.71 72.46 282.52 72.46 284.86 74.79 C 287.2 77.11 287.2 80.9 284.86 83.22 Z M 235.2 79.03 C 235.2 78.02 234.81 77.06 234.08 76.35 C 233.36 75.63 232.41 75.24 231.39 75.24 C 230.37 75.24 229.41 75.63 228.69 76.35 C 227.97 77.06 227.57 78.02 227.57 79.03 C 227.57 80.04 227.97 80.99 228.69 81.71 C 230.13 83.14 232.64 83.14 234.08 81.71 C 234.81 80.99 235.2 80.04 235.2 79.03 Z M 235.63 83.25 C 234.46 84.41 232.92 84.99 231.39 84.99 C 229.85 84.99 228.31 84.41 227.14 83.25 C 224.8 80.92 224.8 77.14 227.14 74.81 C 229.48 72.48 233.29 72.48 235.63 74.81 C 237.97 77.14 237.97 80.92 235.63 83.25 Z M 272.29 95.24 C 267.92 99.58 262.11 101.97 255.93 101.97 C 249.75 101.97 243.95 99.58 239.58 95.24 C 236.58 92.27 234.93 88.71 234.08 86.25 L 232.01 86.97 C 232.94 89.64 234.74 93.51 238.03 96.78 C 242.81 101.53 249.17 104.15 255.93 104.15 C 262.7 104.15 269.05 101.53 273.83 96.78 C 276.6 94.04 278.8 90.55 280.03 86.96 L 277.96 86.26 C 276.83 89.54 274.82 92.73 272.29 95.24 Z M 234.08 71.75 L 232.01 71.03 C 233.34 67.25 235.48 63.76 238.04 61.21 C 242.82 56.47 249.17 53.85 255.93 53.85 C 262.69 53.85 269.05 56.47 273.83 61.21 C 276.52 63.89 278.79 67.47 280.03 71.03 L 277.96 71.75 C 276.82 68.49 274.75 65.21 272.28 62.75 C 267.92 58.41 262.11 56.03 255.93 56.03 C 249.76 56.03 243.95 58.41 239.59 62.75 C 237.25 65.07 235.3 68.27 234.08 71.75 Z" fill="#ffffff" stroke="none" pointer-events="all"/></g></g><g data-cell-id="qYD2Q9FhQhNOlMmpPzYI-21"><g><path d="M 190 275 L 55 275 L 55 365.63" fill="none" stroke="rgb(0, 0, 0)" stroke-miterlimit="10" pointer-events="stroke"/><path d="M 55 370.88 L 51.5 363.88 L 55 365.63 L 58.5 363.88 Z" fill="rgb(0, 0, 0)" stroke="rgb(0, 0, 0)" stroke-miterlimit="10" pointer-events="all"/></g></g><g data-cell-id="qYD2Q9FhQhNOlMmpPzYI-22"><g><rect x="710" y="210" width="130" height="130" fill="rgb(255, 255, 255)" stroke="rgb(0, 0, 0)" pointer-events="all"/></g><g><g transform="translate(-0.5 -0.5)"><switch><foreignObject style="overflow: visible; text-align: left;" pointer-events="none" width="100%" height="100%" requiredFeatures="http://www.w3.org/TR/SVG11/feature#Extensibility"><div xmlns="http://www.w3.org/1999/xhtml" style="display: flex; align-items: unsafe center; justify-content: unsafe center; width: 128px; height: 1px; padding-top: 275px; margin-left: 711px;"><div style="box-sizing: border-box; font-size: 0px; text-align: center;" data-drawio-colors="color: rgb(0, 0, 0); "><div style="display: inline-block; font-size: 12px; font-family: &quot;Helvetica&quot;; color: rgb(0, 0, 0); line-height: 1.2; pointer-events: all; white-space: normal; overflow-wrap: normal;">FileManager</div></div></div></foreignObject><text x="775" y="279" fill="rgb(0, 0, 0)" font-family="&quot;Helvetica&quot;" font-size="12px" text-anchor="middle">FileManager</text></switch></g></g></g><g data-cell-id="qYD2Q9FhQhNOlMmpPzYI-23"><g><rect x="191" y="550" width="130" height="130" fill="rgb(255, 255, 255)" stroke="rgb(0, 0, 0)" pointer-events="all"/></g><g><g transform="translate(-0.5 -0.5)"><switch><foreignObject style="overflow: visible; text-align: left;" pointer-events="none" width="100%" height="100%" requiredFeatures="http://www.w3.org/TR/SVG11/feature#Extensibility"><div xmlns="http://www.w3.org/1999/xhtml" style="display: flex; align-items: unsafe center; justify-content: unsafe center; width: 128px; height: 1px; padding-top: 615px; margin-left: 192px;"><div style="box-sizing: border-box; font-size: 0px; text-align: center;" data-drawio-colors="color: rgb(0, 0, 0); "><div style="display: inline-block; font-size: 12px; font-family: &quot;Helvetica&quot;; color: rgb(0, 0, 0); line-height: 1.2; pointer-events: all; white-space: normal; overflow-wrap: normal;">WorkflowManager</div></div></div></foreignObject><text x="256" y="619" fill="rgb(0, 0, 0)" font-family="&quot;Helvetica&quot;" font-size="12px" text-anchor="middle">WorkflowManager</text></switch></g></g></g><g data-cell-id="qYD2Q9FhQhNOlMmpPzYI-24"><g><path d="M 16 402 L 94 402 L 94 480 L 16 480 Z" fill="#e7157b" stroke="none" pointer-events="all"/><path d="M 70.22 469.97 C 67.83 469.97 65.89 468.02 65.89 465.62 C 65.89 463.21 67.83 461.26 70.22 461.26 C 72.61 461.26 74.55 463.21 74.55 465.62 C 74.55 468.02 72.61 469.97 70.22 469.97 Z M 60.72 451.03 L 49.2 451.03 L 43.44 441 L 49.2 430.97 L 60.72 430.97 L 66.48 441 Z M 41.21 420.74 C 38.82 420.74 36.87 418.79 36.87 416.38 C 36.87 413.98 38.82 412.03 41.21 412.03 C 43.6 412.03 45.54 413.98 45.54 416.38 C 45.54 418.79 43.6 420.74 41.21 420.74 Z M 70.22 459.03 C 69.39 459.03 68.61 459.19 67.89 459.47 L 63.18 451.49 L 62.93 451.63 L 68.72 441.56 C 68.91 441.21 68.91 440.79 68.72 440.44 L 62.32 429.3 C 62.12 428.95 61.75 428.74 61.36 428.74 L 49.72 428.74 L 49.76 428.72 L 45.45 421.39 C 46.86 420.19 47.76 418.39 47.76 416.38 C 47.76 412.75 44.82 409.8 41.21 409.8 C 37.6 409.8 34.66 412.75 34.66 416.38 C 34.66 420.01 37.6 422.97 41.21 422.97 C 42.03 422.97 42.81 422.81 43.54 422.53 L 47.57 429.36 L 41.21 440.44 C 41.01 440.79 41.01 441.21 41.21 441.56 L 47.6 452.7 C 47.8 453.05 48.17 453.26 48.56 453.26 L 61.36 453.26 C 61.45 453.26 61.54 453.24 61.63 453.22 L 65.98 460.61 C 64.57 461.81 63.67 463.61 63.67 465.62 C 63.67 469.25 66.61 472.2 70.22 472.2 C 73.83 472.2 76.76 469.25 76.76 465.62 C 76.76 461.99 73.83 459.03 70.22 459.03 Z M 76.82 432.2 C 74.43 432.2 72.49 430.25 72.49 427.85 C 72.49 425.44 74.43 423.49 76.82 423.49 C 79.21 423.49 81.15 425.44 81.15 427.85 C 81.15 430.25 79.21 432.2 76.82 432.2 Z M 84.94 440.44 L 80.73 433.12 C 82.33 431.91 83.37 430 83.37 427.85 C 83.37 424.22 80.43 421.26 76.82 421.26 C 75.9 421.26 75.03 421.45 74.23 421.8 L 70.8 415.83 C 70.61 415.48 70.24 415.27 69.85 415.27 L 56.11 415.27 L 56.11 417.5 L 69.21 417.5 L 72.38 423.03 C 71.09 424.23 70.28 425.94 70.28 427.85 C 70.28 431.48 73.21 434.43 76.82 434.43 C 77.5 434.43 78.15 434.33 78.76 434.14 L 82.7 441 L 77.16 450.64 L 79.08 451.75 L 84.94 441.56 C 85.14 441.21 85.14 440.79 84.94 440.44 Z M 34.08 457.99 C 31.7 457.99 29.75 456.04 29.75 453.63 C 29.75 451.23 31.7 449.28 34.08 449.28 C 36.47 449.28 38.42 451.23 38.42 453.63 C 38.42 456.04 36.47 457.99 34.08 457.99 Z M 37.7 459.12 C 39.47 457.93 40.63 455.92 40.63 453.63 C 40.63 450 37.69 447.05 34.08 447.05 C 33.04 447.05 32.05 447.3 31.17 447.74 L 27.3 441 L 33.72 429.82 L 31.8 428.71 L 25.06 440.44 C 24.86 440.79 24.86 441.21 25.06 441.56 L 29.38 449.07 C 28.24 450.25 27.54 451.86 27.54 453.63 C 27.54 457.26 30.47 460.22 34.08 460.22 C 34.63 460.22 35.15 460.14 35.66 460.02 L 39.2 466.17 C 39.39 466.52 39.76 466.73 40.15 466.73 L 53.89 466.73 L 53.89 464.5 L 40.79 464.5 Z" fill="#ffffff" stroke="none" pointer-events="all"/></g></g><g data-cell-id="qYD2Q9FhQhNOlMmpPzYI-25"><g><rect x="10" y="372" width="90" height="30" fill="none" stroke="none" pointer-events="all"/></g><g><g transform="translate(-0.5 -0.5)"><switch><foreignObject style="overflow: visible; text-align: left;" pointer-events="none" width="100%" height="100%" requiredFeatures="http://www.w3.org/TR/SVG11/feature#Extensibility"><div xmlns="http://www.w3.org/1999/xhtml" style="display: flex; align-items: unsafe center; justify-content: unsafe center; width: 1px; height: 1px; padding-top: 387px; margin-left: 55px;"><div style="box-sizing: border-box; font-size: 0px; text-align: center;" data-drawio-colors="color: rgb(0, 0, 0); "><div style="display: inline-block; font-size: 12px; font-family: &quot;Helvetica&quot;; color: rgb(0, 0, 0); line-height: 1.2; pointer-events: all; white-space: nowrap;">EventBridge</div></div></div></foreignObject><text x="55" y="391" fill="rgb(0, 0, 0)" font-family="&quot;Helvetica&quot;" font-size="12px" text-anchor="middle">EventBridge</text></switch></g></g></g><g data-cell-id="qYD2Q9FhQhNOlMmpPzYI-26"><g><path d="M 191 615 L 55 615 L 55 486.37" fill="none" stroke="rgb(0, 0, 0)" stroke-miterlimit="10" pointer-events="stroke"/><path d="M 55 481.12 L 58.5 488.12 L 55 486.37 L 51.5 488.12 Z" fill="rgb(0, 0, 0)" stroke="rgb(0, 0, 0)" stroke-miterlimit="10" pointer-events="all"/></g></g><g data-cell-id="qYD2Q9FhQhNOlMmpPzYI-27"><g><rect x="60" y="620" width="110" height="30" fill="none" stroke="none" pointer-events="all"/></g><g><g transform="translate(-0.5 -0.5)"><switch><foreignObject style="overflow: visible; text-align: left;" pointer-events="none" width="100%" height="100%" requiredFeatures="http://www.w3.org/TR/SVG11/feature#Extensibility"><div xmlns="http://www.w3.org/1999/xhtml" style="display: flex; align-items: unsafe center; justify-content: unsafe center; width: 1px; height: 1px; padding-top: 635px; margin-left: 115px;"><div style="box-sizing: border-box; font-size: 0px; text-align: center;" data-drawio-colors="color: rgb(0, 0, 0); "><div style="display: inline-block; font-size: 12px; font-family: &quot;Helvetica&quot;; color: rgb(0, 0, 0); line-height: 1.2; pointer-events: all; white-space: nowrap;">Push rule event</div></div></div></foreignObject><text x="115" y="639" fill="rgb(0, 0, 0)" font-family="&quot;Helvetica&quot;" font-size="12px" text-anchor="middle">Push rule event</text></switch></g></g></g><g data-cell-id="qYD2Q9FhQhNOlMmpPzYI-28"><g><rect x="60" y="240" width="130" height="30" fill="none" stroke="none" pointer-events="all"/></g><g><g transform="translate(-0.5 -0.5)"><switch><foreignObject style="overflow: visible; text-align: left;" pointer-events="none" width="100%" height="100%" requiredFeatures="http://www.w3.org/TR/SVG11/feature#Extensibility"><div xmlns="http://www.w3.org/1999/xhtml" style="display: flex; align-items: unsafe center; justify-content: unsafe center; width: 1px; height: 1px; padding-top: 255px; margin-left: 125px;"><div style="box-sizing: border-box; font-size: 0px; text-align: center;" data-drawio-colors="color: rgb(0, 0, 0); "><div style="display: inline-block; font-size: 12px; font-family: &quot;Helvetica&quot;; color: rgb(0, 0, 0); line-height: 1.2; pointer-events: all; white-space: nowrap;">Listen for rule events</div></div></div></foreignObject><text x="125" y="259" fill="rgb(0, 0, 0)" font-family="&quot;Helvetica&quot;" font-size="12px" text-anchor="middle">Listen for rule events</text></switch></g></g></g><g data-cell-id="qYD2Q9FhQhNOlMmpPzYI-32"><g><path d="M 222.5 340 L 222.5 390 L 287.5 390 L 287.5 346.37" fill="none" stroke="rgb(0, 0, 0)" stroke-miterlimit="10" pointer-events="stroke"/><path d="M 287.5 341.12 L 291 348.12 L 287.5 346.37 L 284 348.12 Z" fill="rgb(0, 0, 0)" stroke="rgb(0, 0, 0)" stroke-miterlimit="10" pointer-events="all"/></g></g><g data-cell-id="qYD2Q9FhQhNOlMmpPzYI-33"><g><rect x="181" y="400" width="150" height="30" fill="none" stroke="none" pointer-events="all"/></g><g><g transform="translate(-0.5 -0.5)"><switch><foreignObject style="overflow: visible; text-align: left;" pointer-events="none" width="100%" height="100%" requiredFeatures="http://www.w3.org/TR/SVG11/feature#Extensibility"><div xmlns="http://www.w3.org/1999/xhtml" style="display: flex; align-items: unsafe center; justify-content: unsafe center; width: 1px; height: 1px; padding-top: 415px; margin-left: 256px;"><div style="box-sizing: border-box; font-size: 0px; text-align: center;" data-drawio-colors="color: rgb(0, 0, 0); "><div style="display: inline-block; font-size: 12px; font-family: &quot;Helvetica&quot;; color: rgb(0, 0, 0); line-height: 1.2; pointer-events: all; white-space: nowrap;"><div>Apply rules to S3 events</div></div></div></div></foreignObject><text x="256" y="419" fill="rgb(0, 0, 0)" font-family="&quot;Helvetica&quot;" font-size="12px" text-anchor="middle">Apply rules to S3 events</text></switch></g></g></g><g data-cell-id="qYD2Q9FhQhNOlMmpPzYI-41"><g><path d="M 320 242.5 L 398 242.5 L 398 171 L 469.63 171" fill="none" stroke="rgb(0, 0, 0)" stroke-miterlimit="10" pointer-events="stroke"/><path d="M 474.88 171 L 467.88 174.5 L 469.63 171 L 467.88 167.5 Z" fill="rgb(0, 0, 0)" stroke="rgb(0, 0, 0)" stroke-miterlimit="10" pointer-events="all"/></g></g><g data-cell-id="qYD2Q9FhQhNOlMmpPzYI-43"><g><path d="M 320 307.5 L 703.63 307.5" fill="none" stroke="rgb(0, 0, 0)" stroke-miterlimit="10" pointer-events="stroke"/><path d="M 708.88 307.5 L 701.88 311 L 703.63 307.5 L 701.88 304 Z" fill="rgb(0, 0, 0)" stroke="rgb(0, 0, 0)" stroke-miterlimit="10" pointer-events="all"/></g></g><g data-cell-id="qYD2Q9FhQhNOlMmpPzYI-35"><g><rect x="190" y="210" width="130" height="130" fill="rgb(255, 255, 255)" stroke="rgb(0, 0, 0)" pointer-events="all"/></g><g><g transform="translate(-0.5 -0.5)"><switch><foreignObject style="overflow: visible; text-align: left;" pointer-events="none" width="100%" height="100%" requiredFeatures="http://www.w3.org/TR/SVG11/feature#Extensibility"><div xmlns="http://www.w3.org/1999/xhtml" style="display: flex; align-items: unsafe center; justify-content: unsafe center; width: 128px; height: 1px; padding-top: 275px; margin-left: 191px;"><div style="box-sizing: border-box; font-size: 0px; text-align: center;" data-drawio-colors="color: rgb(0, 0, 0); "><div style="display: inline-block; font-size: 12px; font-family: &quot;Helvetica&quot;; color: rgb(0, 0, 0); line-height: 1.2; pointer-events: all; white-space: normal; overflow-wrap: normal;">FileAttributeManager</div></div></div></foreignObject><text x="255" y="279" fill="rgb(0, 0, 0)" font-family="&quot;Helvetica&quot;" font-size="12px" text-anchor="middle">FileAttributeManager</text></switch></g></g></g><g data-cell-id="qYD2Q9FhQhNOlMmpPzYI-42"><g><path d="M 554 171 L 632 171 L 632 242.5 L 703.63 242.5" fill="none" stroke="rgb(0, 0, 0)" stroke-miterlimit="10" pointer-events="stroke"/><path d="M 708.88 242.5 L 701.88 246 L 703.63 242.5 L 701.88 239 Z" fill="rgb(0, 0, 0)" stroke="rgb(0, 0, 0)" stroke-miterlimit="10" pointer-events="all"/></g></g><g data-cell-id="qYD2Q9FhQhNOlMmpPzYI-37"><g><path d="M 476 132 L 554 132 L 554 210 L 476 210 Z" fill="#e7157b" stroke="none" pointer-events="all"/><path d="M 502.66 175.03 L 505.95 171.79 C 506.15 171.59 506.27 171.31 506.27 171.02 C 506.27 170.73 506.15 170.46 505.95 170.25 L 502.67 166.97 L 501.12 168.5 L 502.52 169.91 L 497.52 169.91 L 497.52 172.09 L 502.54 172.09 L 501.12 173.49 Z M 527.71 175.13 L 532.09 171.87 C 532.36 171.66 532.53 171.34 532.53 171 C 532.53 170.66 532.36 170.33 532.09 170.13 L 527.71 166.87 L 526.4 168.61 L 528.15 169.91 L 523.77 169.91 L 523.77 172.09 L 528.15 172.09 L 526.4 173.39 Z M 509.76 171 C 509.76 173.31 509.36 175.48 508.62 177.38 C 510.58 176.62 512.8 176.24 515.02 176.24 C 517.24 176.24 519.46 176.62 521.43 177.38 C 520.68 175.48 520.28 173.31 520.28 171 C 520.28 168.69 520.68 166.52 521.43 164.62 C 517.49 166.13 512.55 166.13 508.62 164.62 C 509.36 166.52 509.76 168.69 509.76 171 Z M 504.4 181.55 C 504.19 181.34 504.08 181.06 504.08 180.78 C 504.08 180.51 504.19 180.23 504.4 180.01 C 506.39 178.04 507.57 174.67 507.57 171 C 507.57 167.33 506.39 163.96 504.4 161.99 C 504.19 161.77 504.08 161.49 504.08 161.22 C 504.08 160.94 504.19 160.66 504.4 160.45 C 504.83 160.02 505.52 160.02 505.95 160.45 C 510.19 164.66 519.85 164.66 524.09 160.45 C 524.52 160.02 525.21 160.02 525.64 160.45 C 525.85 160.66 525.96 160.94 525.96 161.22 C 525.96 161.49 525.85 161.77 525.64 161.99 C 523.65 163.96 522.47 167.33 522.47 171 C 522.47 174.67 523.65 178.04 525.64 180.01 C 525.85 180.23 525.96 180.51 525.96 180.78 C 525.96 181.06 525.85 181.34 525.64 181.55 C 525.43 181.76 525.15 181.87 524.87 181.87 C 524.59 181.87 524.31 181.76 524.09 181.55 C 519.85 177.34 510.19 177.34 505.95 181.55 C 505.52 181.98 504.83 181.98 504.4 181.55 Z M 543.43 171.01 C 543.43 169.99 543.03 169.04 542.31 168.32 C 541.57 167.58 540.59 167.21 539.61 167.21 C 538.63 167.21 537.66 167.58 536.91 168.32 C 535.42 169.8 535.42 172.21 536.91 173.69 C 538.4 175.17 540.82 175.17 542.31 173.69 C 543.03 172.97 543.43 172.02 543.43 171.01 Z M 543.86 175.22 C 542.69 176.39 541.15 176.97 539.61 176.97 C 538.07 176.97 536.54 176.39 535.36 175.22 C 533.02 172.9 533.02 169.11 535.36 166.79 C 537.71 164.46 541.52 164.46 543.86 166.79 C 546.2 169.11 546.2 172.9 543.86 175.22 Z M 494.2 171.03 C 494.2 170.02 493.81 169.06 493.08 168.35 C 492.36 167.63 491.41 167.24 490.39 167.24 C 489.37 167.24 488.41 167.63 487.69 168.35 C 486.97 169.06 486.57 170.02 486.57 171.03 C 486.57 172.04 486.97 172.99 487.69 173.71 C 489.13 175.14 491.64 175.14 493.08 173.71 C 493.81 172.99 494.2 172.04 494.2 171.03 Z M 494.63 175.25 C 493.46 176.41 491.92 176.99 490.39 176.99 C 488.85 176.99 487.31 176.41 486.14 175.25 C 483.8 172.92 483.8 169.14 486.14 166.81 C 488.48 164.48 492.29 164.48 494.63 166.81 C 496.97 169.14 496.97 172.92 494.63 175.25 Z M 531.29 187.24 C 526.92 191.58 521.11 193.97 514.93 193.97 C 508.75 193.97 502.95 191.58 498.58 187.24 C 495.58 184.27 493.93 180.71 493.08 178.25 L 491.01 178.97 C 491.94 181.64 493.74 185.51 497.03 188.78 C 501.81 193.53 508.17 196.15 514.93 196.15 C 521.7 196.15 528.05 193.53 532.83 188.78 C 535.6 186.04 537.8 182.55 539.03 178.96 L 536.96 178.26 C 535.83 181.54 533.82 184.73 531.29 187.24 Z M 493.08 163.75 L 491.01 163.03 C 492.34 159.25 494.48 155.76 497.04 153.21 C 501.82 148.47 508.17 145.85 514.93 145.85 C 521.69 145.85 528.05 148.47 532.83 153.21 C 535.52 155.89 537.79 159.47 539.03 163.03 L 536.96 163.75 C 535.82 160.49 533.75 157.21 531.28 154.75 C 526.92 150.41 521.11 148.03 514.93 148.03 C 508.76 148.03 502.95 150.41 498.59 154.75 C 496.25 157.07 494.3 160.27 493.08 163.75 Z" fill="#ffffff" stroke="none" pointer-events="all"/></g></g><g data-cell-id="qYD2Q9FhQhNOlMmpPzYI-38"><g><rect x="200" y="10" width="110" height="30" fill="none" stroke="none" pointer-events="all"/></g><g><g transform="translate(-0.5 -0.5)"><switch><foreignObject style="overflow: visible; text-align: left;" pointer-events="none" width="100%" height="100%" requiredFeatures="http://www.w3.org/TR/SVG11/feature#Extensibility"><div xmlns="http://www.w3.org/1999/xhtml" style="display: flex; align-items: unsafe center; justify-content: unsafe center; width: 1px; height: 1px; padding-top: 25px; margin-left: 255px;"><div style="box-sizing: border-box; font-size: 0px; text-align: center;" data-drawio-colors="color: rgb(0, 0, 0); "><div style="display: inline-block; font-size: 12px; font-family: &quot;Helvetica&quot;; color: rgb(0, 0, 0); line-height: 1.2; pointer-events: all; white-space: nowrap;">SQS S3 Events</div></div></div></foreignObject><text x="255" y="29" fill="rgb(0, 0, 0)" font-family="&quot;Helvetica&quot;" font-size="12px" text-anchor="middle">SQS S3 Events</text></switch></g></g></g><g data-cell-id="qYD2Q9FhQhNOlMmpPzYI-44"><g><rect x="355" y="310" width="320" height="90" fill="none" stroke="none" pointer-events="all"/></g><g><g transform="translate(-0.5 -0.5)"><switch><foreignObject style="overflow: visible; text-align: left;" pointer-events="none" width="100%" height="100%" requiredFeatures="http://www.w3.org/TR/SVG11/feature#Extensibility"><div xmlns="http://www.w3.org/1999/xhtml" style="display: flex; align-items: unsafe center; justify-content: unsafe center; width: 1px; height: 1px; padding-top: 355px; margin-left: 515px;"><div style="box-sizing: border-box; font-size: 0px; text-align: center;" data-drawio-colors="color: rgb(0, 0, 0); "><div style="display: inline-block; font-size: 12px; font-family: &quot;Helvetica&quot;; color: rgb(0, 0, 0); line-height: 1.2; pointer-events: all; white-space: nowrap;"><div>Apply to existing events: </div><div align="left"><pre>POST /api/v1/s3_objects?key=...bucket=...</pre></div><div align="left"><pre>{ "attribute_id": "some_id" }</pre></div></div></div></div></foreignObject><text x="515" y="359" fill="rgb(0, 0, 0)" font-family="&quot;Helvetica&quot;" font-size="12px" text-anchor="middle">Apply to existing events:...</text></switch></g></g></g></g></g></g></svg>